<?xml version="1.0" encoding="UTF-8"?>
<svg id="Vrstva_2" data-name="Vrstva 2" xmlns="http://www.w3.org/2000/svg" viewBox="0 0 43.67 43.68">
  <defs>
    <style>
      .cls-1 {
        fill: #43c0f0;
      }
    </style>
  </defs>
  <g id="Izolovaný_režim" data-name="Izolovaný režim">
    <g>
      <path class="cls-1" d="M10.04,40.67c.75,0,1.36-.61,1.36-1.39s-.61-1.36-1.36-1.36-1.36.62-1.36,1.36.61,1.39,1.36,1.39"/>
      <path class="cls-1" d="M33.61,40.67c.78,0,1.38-.61,1.38-1.39s-.6-1.36-1.38-1.36-1.36.62-1.36,1.36.61,1.39,1.36,1.39"/>
      <path class="cls-1" d="M25.76,39.29c-1.2.03-2.18.99-2.18,2.18s.98,2.21,2.18,2.21,2.18-.98,2.18-2.21-.96-2.18-2.18-2.18"/>
      <path class="cls-1" d="M17.9,39.29c-1.2.03-2.18.99-2.18,2.18s.99,2.21,2.18,2.21,2.18-.98,2.18-2.21-.96-2.18-2.18-2.18"/>
      <path class="cls-1" d="M17.9,12.78c1.52-.02,2.74-1.24,2.74-2.74s-1.22-2.73-2.74-2.73-2.72,1.22-2.72,2.73,1.22,2.72,2.72,2.74"/>
      <path class="cls-1" d="M17.9,4.36c1.22,0,2.18-.96,2.18-2.18s-.96-2.19-2.18-2.19-2.18.99-2.18,2.19.99,2.18,2.18,2.18"/>
      <path class="cls-1" d="M2.18,20.08c1.22,0,2.18-.96,2.18-2.18s-.96-2.18-2.18-2.18-2.18.98-2.18,2.18.98,2.18,2.18,2.18"/>
      <path class="cls-1" d="M4.36,11.4c.75,0,1.36-.61,1.36-1.36s-.61-1.36-1.36-1.36-1.37.61-1.37,1.36.61,1.36,1.37,1.36"/>
      <path class="cls-1" d="M10.04,11.4c.75,0,1.36-.61,1.36-1.36s-.61-1.36-1.36-1.36-1.36.61-1.36,1.36.61,1.36,1.36,1.36"/>
      <path class="cls-1" d="M39.28,11.4c.78,0,1.39-.61,1.39-1.36s-.61-1.36-1.39-1.36c-.74,0-1.35.61-1.35,1.36s.62,1.36,1.35,1.36"/>
      <path class="cls-1" d="M4.36,34.99c.75,0,1.36-.61,1.36-1.38s-.61-1.36-1.36-1.36-1.37.61-1.37,1.36.61,1.38,1.37,1.38"/>
      <path class="cls-1" d="M8.68,4.36c0,.75.61,1.36,1.36,1.36s1.36-.61,1.36-1.36-.61-1.36-1.36-1.36-1.36.61-1.36,1.36"/>
      <path class="cls-1" d="M32.25,4.36c0,.75.61,1.36,1.36,1.36s1.38-.61,1.38-1.36-.6-1.36-1.38-1.36-1.36.61-1.36,1.36"/>
      <path class="cls-1" d="M33.61,11.4c.78,0,1.38-.61,1.38-1.36s-.6-1.36-1.38-1.36-1.36.61-1.36,1.36.61,1.36,1.36,1.36"/>
      <path class="cls-1" d="M10.04,34.99c.75,0,1.36-.61,1.36-1.38s-.61-1.36-1.36-1.36-1.36.61-1.36,1.36.61,1.38,1.36,1.38"/>
      <path class="cls-1" d="M39.28,34.99c.78,0,1.39-.61,1.39-1.38s-.61-1.36-1.39-1.36c-.74,0-1.35.61-1.35,1.36s.62,1.38,1.35,1.38"/>
      <path class="cls-1" d="M33.61,34.99c.78,0,1.38-.61,1.38-1.38s-.6-1.36-1.38-1.36-1.36.61-1.36,1.36.61,1.38,1.36,1.38"/>
      <path class="cls-1" d="M25.76,21.18c1.82,0,3.28-1.48,3.28-3.29s-1.46-3.25-3.28-3.25-3.26,1.45-3.26,3.25,1.45,3.29,3.26,3.29"/>
      <path class="cls-1" d="M41.49,20.08c1.2,0,2.18-.96,2.18-2.18s-.98-2.18-2.18-2.18-2.18.98-2.21,2.18c0,1.22.99,2.18,2.21,2.18"/>
      <path class="cls-1" d="M25.76,12.78c1.52-.02,2.74-1.24,2.74-2.74s-1.22-2.73-2.74-2.73-2.72,1.22-2.72,2.73,1.22,2.72,2.72,2.74"/>
      <path class="cls-1" d="M25.76,4.36c1.22,0,2.18-.98,2.18-2.18s-.96-2.19-2.18-2.19-2.18.99-2.18,2.19.98,2.18,2.18,2.18"/>
      <path class="cls-1" d="M33.61,20.64c1.53,0,2.74-1.22,2.74-2.75s-1.22-2.72-2.74-2.72-2.72,1.22-2.72,2.72,1.22,2.75,2.72,2.75"/>
      <path class="cls-1" d="M17.78,21.18h.12c1.83,0,3.28-1.48,3.28-3.29s-1.45-3.25-3.28-3.25-3.26,1.45-3.26,3.25,1.38,3.22,3.14,3.29"/>
      <path class="cls-1" d="M25.76,22.5c-1.81,0-3.26,1.45-3.26,3.26s1.45,3.28,3.26,3.28,3.28-1.46,3.28-3.28-1.46-3.26-3.28-3.26"/>
      <path class="cls-1" d="M25.76,30.89c-1.5,0-2.72,1.22-2.72,2.72s1.22,2.74,2.72,2.74,2.74-1.22,2.74-2.74-1.22-2.72-2.74-2.72"/>
      <path class="cls-1" d="M41.49,23.57c-1.23,0-2.21.99-2.21,2.19s.99,2.18,2.21,2.18,2.18-.96,2.18-2.18-.98-2.19-2.18-2.19"/>
      <path class="cls-1" d="M33.63,23.03c-1.52,0-2.74,1.22-2.74,2.72s1.22,2.74,2.74,2.74,2.72-1.22,2.72-2.74-1.22-2.72-2.72-2.72"/>
      <path class="cls-1" d="M17.9,30.89c-1.5,0-2.72,1.22-2.72,2.72s1.22,2.74,2.72,2.74,2.74-1.22,2.74-2.74-1.22-2.72-2.74-2.72"/>
      <path class="cls-1" d="M2.18,23.57c-1.2,0-2.18.99-2.18,2.19s.98,2.18,2.18,2.18,2.18-.96,2.18-2.18-.96-2.19-2.18-2.19"/>
      <path class="cls-1" d="M17.9,22.5c-1.81,0-3.26,1.45-3.26,3.26s1.45,3.28,3.26,3.28,3.28-1.48,3.28-3.28-1.45-3.26-3.28-3.26"/>
      <path class="cls-1" d="M10.04,23.03c-1.5,0-2.72,1.22-2.72,2.72s1.22,2.74,2.72,2.74,2.74-1.22,2.74-2.74-1.22-2.72-2.74-2.72"/>
      <path class="cls-1" d="M10.04,15.18c-1.5,0-2.72,1.22-2.72,2.72s1.22,2.74,2.72,2.74,2.74-1.22,2.74-2.74c-.03-1.5-1.22-2.72-2.74-2.72"/>
    </g>
  </g>
</svg>