<svg xmlns="http://www.w3.org/2000/svg" viewBox="0 0 32 32">
  <circle cx="16" cy="3" r="2.5" fill="#4FC3F7"/>
  <circle cx="21" cy="3" r="2.5" fill="#4FC3F7"/>
  <circle cx="9" cy="7" r="1.5" fill="#4FC3F7"/>
  <circle cx="14" cy="7" r="3" fill="#4FC3F7"/>
  <circle cx="20" cy="7" r="3" fill="#4FC3F7"/>
  <circle cx="25" cy="7" r="1.5" fill="#4FC3F7"/>
  <circle cx="6" cy="12" r="2" fill="#4FC3F7"/>
  <circle cx="11" cy="12" r="1.5" fill="#4FC3F7"/>
  <circle cx="16" cy="12" r="3.5" fill="#4FC3F7"/>
  <circle cx="21" cy="12" r="3.5" fill="#4FC3F7"/>
  <circle cx="26" cy="12" r="2" fill="#4FC3F7"/>
  <circle cx="8" cy="17" r="3" fill="#4FC3F7"/>
  <circle cx="14" cy="17" r="4" fill="#4FC3F7"/>
  <circle cx="20" cy="17" r="4" fill="#4FC3F7"/>
  <circle cx="26" cy="17" r="3" fill="#4FC3F7"/>
  <circle cx="5" cy="22" r="2.5" fill="#4FC3F7"/>
  <circle cx="10" cy="22" r="3.5" fill="#4FC3F7"/>
  <circle cx="16" cy="22" r="4.5" fill="#4FC3F7"/>
  <circle cx="22" cy="22" r="4.5" fill="#4FC3F7"/>
  <circle cx="28" cy="22" r="2.5" fill="#4FC3F7"/>
  <circle cx="8" cy="27" r="2" fill="#4FC3F7"/>
  <circle cx="14" cy="27" r="3.5" fill="#4FC3F7"/>
  <circle cx="20" cy="27" r="3.5" fill="#4FC3F7"/>
  <circle cx="25" cy="27" r="2" fill="#4FC3F7"/>
  <circle cx="11" cy="31" r="2.5" fill="#4FC3F7"/>
  <circle cx="16" cy="31" r="2.5" fill="#4FC3F7"/>
</svg>
